# wireframe sphere: 3 orthogonal rings, radius 1.0
v 0.955 0 -0.045
v 0.92246 0.24717 -0.045
v 1.045 0 -0.045
v 1.00939 0.27047 -0.045
v 1.045 0 0.045
v 1.00939 0.27047 0.045
v 0.955 0 0.045
v 0.92246 0.24717 0.045
v 0.92246 0.24717 -0.045
v 0.82705 0.4775 -0.045
v 1.00939 0.27047 -0.045
v 0.905 0.5225 -0.045
v 1.00939 0.27047 0.045
v 0.905 0.5225 0.045
v 0.92246 0.24717 0.045
v 0.82705 0.4775 0.045
v 0.82705 0.4775 -0.045
v 0.67529 0.67529 -0.045
v 0.905 0.5225 -0.045
v 0.73893 0.73893 -0.045
v 0.905 0.5225 0.045
v 0.73893 0.73893 0.045
v 0.82705 0.4775 0.045
v 0.67529 0.67529 0.045
v 0.67529 0.67529 -0.045
v 0.4775 0.82705 -0.045
v 0.73893 0.73893 -0.045
v 0.5225 0.905 -0.045
v 0.73893 0.73893 0.045
v 0.5225 0.905 0.045
v 0.67529 0.67529 0.045
v 0.4775 0.82705 0.045
v 0.4775 0.82705 -0.045
v 0.24717 0.92246 -0.045
v 0.5225 0.905 -0.045
v 0.27047 1.00939 -0.045
v 0.5225 0.905 0.045
v 0.27047 1.00939 0.045
v 0.4775 0.82705 0.045
v 0.24717 0.92246 0.045
v 0.24717 0.92246 -0.045
v 0 0.955 -0.045
v 0.27047 1.00939 -0.045
v 0 1.045 -0.045
v 0.27047 1.00939 0.045
v 0 1.045 0.045
v 0.24717 0.92246 0.045
v 0 0.955 0.045
v 0 0.955 -0.045
v -0.24717 0.92246 -0.045
v 0 1.045 -0.045
v -0.27047 1.00939 -0.045
v 0 1.045 0.045
v -0.27047 1.00939 0.045
v 0 0.955 0.045
v -0.24717 0.92246 0.045
v -0.24717 0.92246 -0.045
v -0.4775 0.82705 -0.045
v -0.27047 1.00939 -0.045
v -0.5225 0.905 -0.045
v -0.27047 1.00939 0.045
v -0.5225 0.905 0.045
v -0.24717 0.92246 0.045
v -0.4775 0.82705 0.045
v -0.4775 0.82705 -0.045
v -0.67529 0.67529 -0.045
v -0.5225 0.905 -0.045
v -0.73893 0.73893 -0.045
v -0.5225 0.905 0.045
v -0.73893 0.73893 0.045
v -0.4775 0.82705 0.045
v -0.67529 0.67529 0.045
v -0.67529 0.67529 -0.045
v -0.82705 0.4775 -0.045
v -0.73893 0.73893 -0.045
v -0.905 0.5225 -0.045
v -0.73893 0.73893 0.045
v -0.905 0.5225 0.045
v -0.67529 0.67529 0.045
v -0.82705 0.4775 0.045
v -0.82705 0.4775 -0.045
v -0.92246 0.24717 -0.045
v -0.905 0.5225 -0.045
v -1.00939 0.27047 -0.045
v -0.905 0.5225 0.045
v -1.00939 0.27047 0.045
v -0.82705 0.4775 0.045
v -0.92246 0.24717 0.045
v -0.92246 0.24717 -0.045
v -0.955 0 -0.045
v -1.00939 0.27047 -0.045
v -1.045 0 -0.045
v -1.00939 0.27047 0.045
v -1.045 0 0.045
v -0.92246 0.24717 0.045
v -0.955 0 0.045
v -0.955 0 -0.045
v -0.92246 -0.24717 -0.045
v -1.045 0 -0.045
v -1.00939 -0.27047 -0.045
v -1.045 0 0.045
v -1.00939 -0.27047 0.045
v -0.955 0 0.045
v -0.92246 -0.24717 0.045
v -0.92246 -0.24717 -0.045
v -0.82705 -0.4775 -0.045
v -1.00939 -0.27047 -0.045
v -0.905 -0.5225 -0.045
v -1.00939 -0.27047 0.045
v -0.905 -0.5225 0.045
v -0.92246 -0.24717 0.045
v -0.82705 -0.4775 0.045
v -0.82705 -0.4775 -0.045
v -0.67529 -0.67529 -0.045
v -0.905 -0.5225 -0.045
v -0.73893 -0.73893 -0.045
v -0.905 -0.5225 0.045
v -0.73893 -0.73893 0.045
v -0.82705 -0.4775 0.045
v -0.67529 -0.67529 0.045
v -0.67529 -0.67529 -0.045
v -0.4775 -0.82705 -0.045
v -0.73893 -0.73893 -0.045
v -0.5225 -0.905 -0.045
v -0.73893 -0.73893 0.045
v -0.5225 -0.905 0.045
v -0.67529 -0.67529 0.045
v -0.4775 -0.82705 0.045
v -0.4775 -0.82705 -0.045
v -0.24717 -0.92246 -0.045
v -0.5225 -0.905 -0.045
v -0.27047 -1.00939 -0.045
v -0.5225 -0.905 0.045
v -0.27047 -1.00939 0.045
v -0.4775 -0.82705 0.045
v -0.24717 -0.92246 0.045
v -0.24717 -0.92246 -0.045
v 0 -0.955 -0.045
v -0.27047 -1.00939 -0.045
v 0 -1.045 -0.045
v -0.27047 -1.00939 0.045
v 0 -1.045 0.045
v -0.24717 -0.92246 0.045
v 0 -0.955 0.045
v 0 -0.955 -0.045
v 0.24717 -0.92246 -0.045
v 0 -1.045 -0.045
v 0.27047 -1.00939 -0.045
v 0 -1.045 0.045
v 0.27047 -1.00939 0.045
v 0 -0.955 0.045
v 0.24717 -0.92246 0.045
v 0.24717 -0.92246 -0.045
v 0.4775 -0.82705 -0.045
v 0.27047 -1.00939 -0.045
v 0.5225 -0.905 -0.045
v 0.27047 -1.00939 0.045
v 0.5225 -0.905 0.045
v 0.24717 -0.92246 0.045
v 0.4775 -0.82705 0.045
v 0.4775 -0.82705 -0.045
v 0.67529 -0.67529 -0.045
v 0.5225 -0.905 -0.045
v 0.73893 -0.73893 -0.045
v 0.5225 -0.905 0.045
v 0.73893 -0.73893 0.045
v 0.4775 -0.82705 0.045
v 0.67529 -0.67529 0.045
v 0.67529 -0.67529 -0.045
v 0.82705 -0.4775 -0.045
v 0.73893 -0.73893 -0.045
v 0.905 -0.5225 -0.045
v 0.73893 -0.73893 0.045
v 0.905 -0.5225 0.045
v 0.67529 -0.67529 0.045
v 0.82705 -0.4775 0.045
v 0.82705 -0.4775 -0.045
v 0.92246 -0.24717 -0.045
v 0.905 -0.5225 -0.045
v 1.00939 -0.27047 -0.045
v 0.905 -0.5225 0.045
v 1.00939 -0.27047 0.045
v 0.82705 -0.4775 0.045
v 0.92246 -0.24717 0.045
v 0.92246 -0.24717 -0.045
v 0.955 0 -0.045
v 1.00939 -0.27047 -0.045
v 1.045 0 -0.045
v 1.00939 -0.27047 0.045
v 1.045 0 0.045
v 0.92246 -0.24717 0.045
v 0.955 0 0.045
v 0.955 -0.045 0
v 0.92246 -0.045 0.24717
v 1.045 -0.045 0
v 1.00939 -0.045 0.27047
v 1.045 0.045 0
v 1.00939 0.045 0.27047
v 0.955 0.045 0
v 0.92246 0.045 0.24717
v 0.92246 -0.045 0.24717
v 0.82705 -0.045 0.4775
v 1.00939 -0.045 0.27047
v 0.905 -0.045 0.5225
v 1.00939 0.045 0.27047
v 0.905 0.045 0.5225
v 0.92246 0.045 0.24717
v 0.82705 0.045 0.4775
v 0.82705 -0.045 0.4775
v 0.67529 -0.045 0.67529
v 0.905 -0.045 0.5225
v 0.73893 -0.045 0.73893
v 0.905 0.045 0.5225
v 0.73893 0.045 0.73893
v 0.82705 0.045 0.4775
v 0.67529 0.045 0.67529
v 0.67529 -0.045 0.67529
v 0.4775 -0.045 0.82705
v 0.73893 -0.045 0.73893
v 0.5225 -0.045 0.905
v 0.73893 0.045 0.73893
v 0.5225 0.045 0.905
v 0.67529 0.045 0.67529
v 0.4775 0.045 0.82705
v 0.4775 -0.045 0.82705
v 0.24717 -0.045 0.92246
v 0.5225 -0.045 0.905
v 0.27047 -0.045 1.00939
v 0.5225 0.045 0.905
v 0.27047 0.045 1.00939
v 0.4775 0.045 0.82705
v 0.24717 0.045 0.92246
v 0.24717 -0.045 0.92246
v 0 -0.045 0.955
v 0.27047 -0.045 1.00939
v 0 -0.045 1.045
v 0.27047 0.045 1.00939
v 0 0.045 1.045
v 0.24717 0.045 0.92246
v 0 0.045 0.955
v 0 -0.045 0.955
v -0.24717 -0.045 0.92246
v 0 -0.045 1.045
v -0.27047 -0.045 1.00939
v 0 0.045 1.045
v -0.27047 0.045 1.00939
v 0 0.045 0.955
v -0.24717 0.045 0.92246
v -0.24717 -0.045 0.92246
v -0.4775 -0.045 0.82705
v -0.27047 -0.045 1.00939
v -0.5225 -0.045 0.905
v -0.27047 0.045 1.00939
v -0.5225 0.045 0.905
v -0.24717 0.045 0.92246
v -0.4775 0.045 0.82705
v -0.4775 -0.045 0.82705
v -0.67529 -0.045 0.67529
v -0.5225 -0.045 0.905
v -0.73893 -0.045 0.73893
v -0.5225 0.045 0.905
v -0.73893 0.045 0.73893
v -0.4775 0.045 0.82705
v -0.67529 0.045 0.67529
v -0.67529 -0.045 0.67529
v -0.82705 -0.045 0.4775
v -0.73893 -0.045 0.73893
v -0.905 -0.045 0.5225
v -0.73893 0.045 0.73893
v -0.905 0.045 0.5225
v -0.67529 0.045 0.67529
v -0.82705 0.045 0.4775
v -0.82705 -0.045 0.4775
v -0.92246 -0.045 0.24717
v -0.905 -0.045 0.5225
v -1.00939 -0.045 0.27047
v -0.905 0.045 0.5225
v -1.00939 0.045 0.27047
v -0.82705 0.045 0.4775
v -0.92246 0.045 0.24717
v -0.92246 -0.045 0.24717
v -0.955 -0.045 0
v -1.00939 -0.045 0.27047
v -1.045 -0.045 0
v -1.00939 0.045 0.27047
v -1.045 0.045 0
v -0.92246 0.045 0.24717
v -0.955 0.045 0
v -0.955 -0.045 0
v -0.92246 -0.045 -0.24717
v -1.045 -0.045 0
v -1.00939 -0.045 -0.27047
v -1.045 0.045 0
v -1.00939 0.045 -0.27047
v -0.955 0.045 0
v -0.92246 0.045 -0.24717
v -0.92246 -0.045 -0.24717
v -0.82705 -0.045 -0.4775
v -1.00939 -0.045 -0.27047
v -0.905 -0.045 -0.5225
v -1.00939 0.045 -0.27047
v -0.905 0.045 -0.5225
v -0.92246 0.045 -0.24717
v -0.82705 0.045 -0.4775
v -0.82705 -0.045 -0.4775
v -0.67529 -0.045 -0.67529
v -0.905 -0.045 -0.5225
v -0.73893 -0.045 -0.73893
v -0.905 0.045 -0.5225
v -0.73893 0.045 -0.73893
v -0.82705 0.045 -0.4775
v -0.67529 0.045 -0.67529
v -0.67529 -0.045 -0.67529
v -0.4775 -0.045 -0.82705
v -0.73893 -0.045 -0.73893
v -0.5225 -0.045 -0.905
v -0.73893 0.045 -0.73893
v -0.5225 0.045 -0.905
v -0.67529 0.045 -0.67529
v -0.4775 0.045 -0.82705
v -0.4775 -0.045 -0.82705
v -0.24717 -0.045 -0.92246
v -0.5225 -0.045 -0.905
v -0.27047 -0.045 -1.00939
v -0.5225 0.045 -0.905
v -0.27047 0.045 -1.00939
v -0.4775 0.045 -0.82705
v -0.24717 0.045 -0.92246
v -0.24717 -0.045 -0.92246
v 0 -0.045 -0.955
v -0.27047 -0.045 -1.00939
v 0 -0.045 -1.045
v -0.27047 0.045 -1.00939
v 0 0.045 -1.045
v -0.24717 0.045 -0.92246
v 0 0.045 -0.955
v 0 -0.045 -0.955
v 0.24717 -0.045 -0.92246
v 0 -0.045 -1.045
v 0.27047 -0.045 -1.00939
v 0 0.045 -1.045
v 0.27047 0.045 -1.00939
v 0 0.045 -0.955
v 0.24717 0.045 -0.92246
v 0.24717 -0.045 -0.92246
v 0.4775 -0.045 -0.82705
v 0.27047 -0.045 -1.00939
v 0.5225 -0.045 -0.905
v 0.27047 0.045 -1.00939
v 0.5225 0.045 -0.905
v 0.24717 0.045 -0.92246
v 0.4775 0.045 -0.82705
v 0.4775 -0.045 -0.82705
v 0.67529 -0.045 -0.67529
v 0.5225 -0.045 -0.905
v 0.73893 -0.045 -0.73893
v 0.5225 0.045 -0.905
v 0.73893 0.045 -0.73893
v 0.4775 0.045 -0.82705
v 0.67529 0.045 -0.67529
v 0.67529 -0.045 -0.67529
v 0.82705 -0.045 -0.4775
v 0.73893 -0.045 -0.73893
v 0.905 -0.045 -0.5225
v 0.73893 0.045 -0.73893
v 0.905 0.045 -0.5225
v 0.67529 0.045 -0.67529
v 0.82705 0.045 -0.4775
v 0.82705 -0.045 -0.4775
v 0.92246 -0.045 -0.24717
v 0.905 -0.045 -0.5225
v 1.00939 -0.045 -0.27047
v 0.905 0.045 -0.5225
v 1.00939 0.045 -0.27047
v 0.82705 0.045 -0.4775
v 0.92246 0.045 -0.24717
v 0.92246 -0.045 -0.24717
v 0.955 -0.045 0
v 1.00939 -0.045 -0.27047
v 1.045 -0.045 0
v 1.00939 0.045 -0.27047
v 1.045 0.045 0
v 0.92246 0.045 -0.24717
v 0.955 0.045 0
v -0.045 0.955 0
v -0.045 0.92246 0.24717
v -0.045 1.045 0
v -0.045 1.00939 0.27047
v 0.045 1.045 0
v 0.045 1.00939 0.27047
v 0.045 0.955 0
v 0.045 0.92246 0.24717
v -0.045 0.92246 0.24717
v -0.045 0.82705 0.4775
v -0.045 1.00939 0.27047
v -0.045 0.905 0.5225
v 0.045 1.00939 0.27047
v 0.045 0.905 0.5225
v 0.045 0.92246 0.24717
v 0.045 0.82705 0.4775
v -0.045 0.82705 0.4775
v -0.045 0.67529 0.67529
v -0.045 0.905 0.5225
v -0.045 0.73893 0.73893
v 0.045 0.905 0.5225
v 0.045 0.73893 0.73893
v 0.045 0.82705 0.4775
v 0.045 0.67529 0.67529
v -0.045 0.67529 0.67529
v -0.045 0.4775 0.82705
v -0.045 0.73893 0.73893
v -0.045 0.5225 0.905
v 0.045 0.73893 0.73893
v 0.045 0.5225 0.905
v 0.045 0.67529 0.67529
v 0.045 0.4775 0.82705
v -0.045 0.4775 0.82705
v -0.045 0.24717 0.92246
v -0.045 0.5225 0.905
v -0.045 0.27047 1.00939
v 0.045 0.5225 0.905
v 0.045 0.27047 1.00939
v 0.045 0.4775 0.82705
v 0.045 0.24717 0.92246
v -0.045 0.24717 0.92246
v -0.045 0 0.955
v -0.045 0.27047 1.00939
v -0.045 0 1.045
v 0.045 0.27047 1.00939
v 0.045 0 1.045
v 0.045 0.24717 0.92246
v 0.045 0 0.955
v -0.045 0 0.955
v -0.045 -0.24717 0.92246
v -0.045 0 1.045
v -0.045 -0.27047 1.00939
v 0.045 0 1.045
v 0.045 -0.27047 1.00939
v 0.045 0 0.955
v 0.045 -0.24717 0.92246
v -0.045 -0.24717 0.92246
v -0.045 -0.4775 0.82705
v -0.045 -0.27047 1.00939
v -0.045 -0.5225 0.905
v 0.045 -0.27047 1.00939
v 0.045 -0.5225 0.905
v 0.045 -0.24717 0.92246
v 0.045 -0.4775 0.82705
v -0.045 -0.4775 0.82705
v -0.045 -0.67529 0.67529
v -0.045 -0.5225 0.905
v -0.045 -0.73893 0.73893
v 0.045 -0.5225 0.905
v 0.045 -0.73893 0.73893
v 0.045 -0.4775 0.82705
v 0.045 -0.67529 0.67529
v -0.045 -0.67529 0.67529
v -0.045 -0.82705 0.4775
v -0.045 -0.73893 0.73893
v -0.045 -0.905 0.5225
v 0.045 -0.73893 0.73893
v 0.045 -0.905 0.5225
v 0.045 -0.67529 0.67529
v 0.045 -0.82705 0.4775
v -0.045 -0.82705 0.4775
v -0.045 -0.92246 0.24717
v -0.045 -0.905 0.5225
v -0.045 -1.00939 0.27047
v 0.045 -0.905 0.5225
v 0.045 -1.00939 0.27047
v 0.045 -0.82705 0.4775
v 0.045 -0.92246 0.24717
v -0.045 -0.92246 0.24717
v -0.045 -0.955 0
v -0.045 -1.00939 0.27047
v -0.045 -1.045 0
v 0.045 -1.00939 0.27047
v 0.045 -1.045 0
v 0.045 -0.92246 0.24717
v 0.045 -0.955 0
v -0.045 -0.955 0
v -0.045 -0.92246 -0.24717
v -0.045 -1.045 0
v -0.045 -1.00939 -0.27047
v 0.045 -1.045 0
v 0.045 -1.00939 -0.27047
v 0.045 -0.955 0
v 0.045 -0.92246 -0.24717
v -0.045 -0.92246 -0.24717
v -0.045 -0.82705 -0.4775
v -0.045 -1.00939 -0.27047
v -0.045 -0.905 -0.5225
v 0.045 -1.00939 -0.27047
v 0.045 -0.905 -0.5225
v 0.045 -0.92246 -0.24717
v 0.045 -0.82705 -0.4775
v -0.045 -0.82705 -0.4775
v -0.045 -0.67529 -0.67529
v -0.045 -0.905 -0.5225
v -0.045 -0.73893 -0.73893
v 0.045 -0.905 -0.5225
v 0.045 -0.73893 -0.73893
v 0.045 -0.82705 -0.4775
v 0.045 -0.67529 -0.67529
v -0.045 -0.67529 -0.67529
v -0.045 -0.4775 -0.82705
v -0.045 -0.73893 -0.73893
v -0.045 -0.5225 -0.905
v 0.045 -0.73893 -0.73893
v 0.045 -0.5225 -0.905
v 0.045 -0.67529 -0.67529
v 0.045 -0.4775 -0.82705
v -0.045 -0.4775 -0.82705
v -0.045 -0.24717 -0.92246
v -0.045 -0.5225 -0.905
v -0.045 -0.27047 -1.00939
v 0.045 -0.5225 -0.905
v 0.045 -0.27047 -1.00939
v 0.045 -0.4775 -0.82705
v 0.045 -0.24717 -0.92246
v -0.045 -0.24717 -0.92246
v -0.045 0 -0.955
v -0.045 -0.27047 -1.00939
v -0.045 0 -1.045
v 0.045 -0.27047 -1.00939
v 0.045 0 -1.045
v 0.045 -0.24717 -0.92246
v 0.045 0 -0.955
v -0.045 0 -0.955
v -0.045 0.24717 -0.92246
v -0.045 0 -1.045
v -0.045 0.27047 -1.00939
v 0.045 0 -1.045
v 0.045 0.27047 -1.00939
v 0.045 0 -0.955
v 0.045 0.24717 -0.92246
v -0.045 0.24717 -0.92246
v -0.045 0.4775 -0.82705
v -0.045 0.27047 -1.00939
v -0.045 0.5225 -0.905
v 0.045 0.27047 -1.00939
v 0.045 0.5225 -0.905
v 0.045 0.24717 -0.92246
v 0.045 0.4775 -0.82705
v -0.045 0.4775 -0.82705
v -0.045 0.67529 -0.67529
v -0.045 0.5225 -0.905
v -0.045 0.73893 -0.73893
v 0.045 0.5225 -0.905
v 0.045 0.73893 -0.73893
v 0.045 0.4775 -0.82705
v 0.045 0.67529 -0.67529
v -0.045 0.67529 -0.67529
v -0.045 0.82705 -0.4775
v -0.045 0.73893 -0.73893
v -0.045 0.905 -0.5225
v 0.045 0.73893 -0.73893
v 0.045 0.905 -0.5225
v 0.045 0.67529 -0.67529
v 0.045 0.82705 -0.4775
v -0.045 0.82705 -0.4775
v -0.045 0.92246 -0.24717
v -0.045 0.905 -0.5225
v -0.045 1.00939 -0.27047
v 0.045 0.905 -0.5225
v 0.045 1.00939 -0.27047
v 0.045 0.82705 -0.4775
v 0.045 0.92246 -0.24717
v -0.045 0.92246 -0.24717
v -0.045 0.955 0
v -0.045 1.00939 -0.27047
v -0.045 1.045 0
v 0.045 1.00939 -0.27047
v 0.045 1.045 0
v 0.045 0.92246 -0.24717
v 0.045 0.955 0
g wire
f 1 2 4
f 1 4 3
f 3 4 6
f 3 6 5
f 5 6 8
f 5 8 7
f 7 8 2
f 7 2 1
f 9 10 12
f 9 12 11
f 11 12 14
f 11 14 13
f 13 14 16
f 13 16 15
f 15 16 10
f 15 10 9
f 17 18 20
f 17 20 19
f 19 20 22
f 19 22 21
f 21 22 24
f 21 24 23
f 23 24 18
f 23 18 17
f 25 26 28
f 25 28 27
f 27 28 30
f 27 30 29
f 29 30 32
f 29 32 31
f 31 32 26
f 31 26 25
f 33 34 36
f 33 36 35
f 35 36 38
f 35 38 37
f 37 38 40
f 37 40 39
f 39 40 34
f 39 34 33
f 41 42 44
f 41 44 43
f 43 44 46
f 43 46 45
f 45 46 48
f 45 48 47
f 47 48 42
f 47 42 41
f 49 50 52
f 49 52 51
f 51 52 54
f 51 54 53
f 53 54 56
f 53 56 55
f 55 56 50
f 55 50 49
f 57 58 60
f 57 60 59
f 59 60 62
f 59 62 61
f 61 62 64
f 61 64 63
f 63 64 58
f 63 58 57
f 65 66 68
f 65 68 67
f 67 68 70
f 67 70 69
f 69 70 72
f 69 72 71
f 71 72 66
f 71 66 65
f 73 74 76
f 73 76 75
f 75 76 78
f 75 78 77
f 77 78 80
f 77 80 79
f 79 80 74
f 79 74 73
f 81 82 84
f 81 84 83
f 83 84 86
f 83 86 85
f 85 86 88
f 85 88 87
f 87 88 82
f 87 82 81
f 89 90 92
f 89 92 91
f 91 92 94
f 91 94 93
f 93 94 96
f 93 96 95
f 95 96 90
f 95 90 89
f 97 98 100
f 97 100 99
f 99 100 102
f 99 102 101
f 101 102 104
f 101 104 103
f 103 104 98
f 103 98 97
f 105 106 108
f 105 108 107
f 107 108 110
f 107 110 109
f 109 110 112
f 109 112 111
f 111 112 106
f 111 106 105
f 113 114 116
f 113 116 115
f 115 116 118
f 115 118 117
f 117 118 120
f 117 120 119
f 119 120 114
f 119 114 113
f 121 122 124
f 121 124 123
f 123 124 126
f 123 126 125
f 125 126 128
f 125 128 127
f 127 128 122
f 127 122 121
f 129 130 132
f 129 132 131
f 131 132 134
f 131 134 133
f 133 134 136
f 133 136 135
f 135 136 130
f 135 130 129
f 137 138 140
f 137 140 139
f 139 140 142
f 139 142 141
f 141 142 144
f 141 144 143
f 143 144 138
f 143 138 137
f 145 146 148
f 145 148 147
f 147 148 150
f 147 150 149
f 149 150 152
f 149 152 151
f 151 152 146
f 151 146 145
f 153 154 156
f 153 156 155
f 155 156 158
f 155 158 157
f 157 158 160
f 157 160 159
f 159 160 154
f 159 154 153
f 161 162 164
f 161 164 163
f 163 164 166
f 163 166 165
f 165 166 168
f 165 168 167
f 167 168 162
f 167 162 161
f 169 170 172
f 169 172 171
f 171 172 174
f 171 174 173
f 173 174 176
f 173 176 175
f 175 176 170
f 175 170 169
f 177 178 180
f 177 180 179
f 179 180 182
f 179 182 181
f 181 182 184
f 181 184 183
f 183 184 178
f 183 178 177
f 185 186 188
f 185 188 187
f 187 188 190
f 187 190 189
f 189 190 192
f 189 192 191
f 191 192 186
f 191 186 185
f 193 194 196
f 193 196 195
f 195 196 198
f 195 198 197
f 197 198 200
f 197 200 199
f 199 200 194
f 199 194 193
f 201 202 204
f 201 204 203
f 203 204 206
f 203 206 205
f 205 206 208
f 205 208 207
f 207 208 202
f 207 202 201
f 209 210 212
f 209 212 211
f 211 212 214
f 211 214 213
f 213 214 216
f 213 216 215
f 215 216 210
f 215 210 209
f 217 218 220
f 217 220 219
f 219 220 222
f 219 222 221
f 221 222 224
f 221 224 223
f 223 224 218
f 223 218 217
f 225 226 228
f 225 228 227
f 227 228 230
f 227 230 229
f 229 230 232
f 229 232 231
f 231 232 226
f 231 226 225
f 233 234 236
f 233 236 235
f 235 236 238
f 235 238 237
f 237 238 240
f 237 240 239
f 239 240 234
f 239 234 233
f 241 242 244
f 241 244 243
f 243 244 246
f 243 246 245
f 245 246 248
f 245 248 247
f 247 248 242
f 247 242 241
f 249 250 252
f 249 252 251
f 251 252 254
f 251 254 253
f 253 254 256
f 253 256 255
f 255 256 250
f 255 250 249
f 257 258 260
f 257 260 259
f 259 260 262
f 259 262 261
f 261 262 264
f 261 264 263
f 263 264 258
f 263 258 257
f 265 266 268
f 265 268 267
f 267 268 270
f 267 270 269
f 269 270 272
f 269 272 271
f 271 272 266
f 271 266 265
f 273 274 276
f 273 276 275
f 275 276 278
f 275 278 277
f 277 278 280
f 277 280 279
f 279 280 274
f 279 274 273
f 281 282 284
f 281 284 283
f 283 284 286
f 283 286 285
f 285 286 288
f 285 288 287
f 287 288 282
f 287 282 281
f 289 290 292
f 289 292 291
f 291 292 294
f 291 294 293
f 293 294 296
f 293 296 295
f 295 296 290
f 295 290 289
f 297 298 300
f 297 300 299
f 299 300 302
f 299 302 301
f 301 302 304
f 301 304 303
f 303 304 298
f 303 298 297
f 305 306 308
f 305 308 307
f 307 308 310
f 307 310 309
f 309 310 312
f 309 312 311
f 311 312 306
f 311 306 305
f 313 314 316
f 313 316 315
f 315 316 318
f 315 318 317
f 317 318 320
f 317 320 319
f 319 320 314
f 319 314 313
f 321 322 324
f 321 324 323
f 323 324 326
f 323 326 325
f 325 326 328
f 325 328 327
f 327 328 322
f 327 322 321
f 329 330 332
f 329 332 331
f 331 332 334
f 331 334 333
f 333 334 336
f 333 336 335
f 335 336 330
f 335 330 329
f 337 338 340
f 337 340 339
f 339 340 342
f 339 342 341
f 341 342 344
f 341 344 343
f 343 344 338
f 343 338 337
f 345 346 348
f 345 348 347
f 347 348 350
f 347 350 349
f 349 350 352
f 349 352 351
f 351 352 346
f 351 346 345
f 353 354 356
f 353 356 355
f 355 356 358
f 355 358 357
f 357 358 360
f 357 360 359
f 359 360 354
f 359 354 353
f 361 362 364
f 361 364 363
f 363 364 366
f 363 366 365
f 365 366 368
f 365 368 367
f 367 368 362
f 367 362 361
f 369 370 372
f 369 372 371
f 371 372 374
f 371 374 373
f 373 374 376
f 373 376 375
f 375 376 370
f 375 370 369
f 377 378 380
f 377 380 379
f 379 380 382
f 379 382 381
f 381 382 384
f 381 384 383
f 383 384 378
f 383 378 377
f 385 386 388
f 385 388 387
f 387 388 390
f 387 390 389
f 389 390 392
f 389 392 391
f 391 392 386
f 391 386 385
f 393 394 396
f 393 396 395
f 395 396 398
f 395 398 397
f 397 398 400
f 397 400 399
f 399 400 394
f 399 394 393
f 401 402 404
f 401 404 403
f 403 404 406
f 403 406 405
f 405 406 408
f 405 408 407
f 407 408 402
f 407 402 401
f 409 410 412
f 409 412 411
f 411 412 414
f 411 414 413
f 413 414 416
f 413 416 415
f 415 416 410
f 415 410 409
f 417 418 420
f 417 420 419
f 419 420 422
f 419 422 421
f 421 422 424
f 421 424 423
f 423 424 418
f 423 418 417
f 425 426 428
f 425 428 427
f 427 428 430
f 427 430 429
f 429 430 432
f 429 432 431
f 431 432 426
f 431 426 425
f 433 434 436
f 433 436 435
f 435 436 438
f 435 438 437
f 437 438 440
f 437 440 439
f 439 440 434
f 439 434 433
f 441 442 444
f 441 444 443
f 443 444 446
f 443 446 445
f 445 446 448
f 445 448 447
f 447 448 442
f 447 442 441
f 449 450 452
f 449 452 451
f 451 452 454
f 451 454 453
f 453 454 456
f 453 456 455
f 455 456 450
f 455 450 449
f 457 458 460
f 457 460 459
f 459 460 462
f 459 462 461
f 461 462 464
f 461 464 463
f 463 464 458
f 463 458 457
f 465 466 468
f 465 468 467
f 467 468 470
f 467 470 469
f 469 470 472
f 469 472 471
f 471 472 466
f 471 466 465
f 473 474 476
f 473 476 475
f 475 476 478
f 475 478 477
f 477 478 480
f 477 480 479
f 479 480 474
f 479 474 473
f 481 482 484
f 481 484 483
f 483 484 486
f 483 486 485
f 485 486 488
f 485 488 487
f 487 488 482
f 487 482 481
f 489 490 492
f 489 492 491
f 491 492 494
f 491 494 493
f 493 494 496
f 493 496 495
f 495 496 490
f 495 490 489
f 497 498 500
f 497 500 499
f 499 500 502
f 499 502 501
f 501 502 504
f 501 504 503
f 503 504 498
f 503 498 497
f 505 506 508
f 505 508 507
f 507 508 510
f 507 510 509
f 509 510 512
f 509 512 511
f 511 512 506
f 511 506 505
f 513 514 516
f 513 516 515
f 515 516 518
f 515 518 517
f 517 518 520
f 517 520 519
f 519 520 514
f 519 514 513
f 521 522 524
f 521 524 523
f 523 524 526
f 523 526 525
f 525 526 528
f 525 528 527
f 527 528 522
f 527 522 521
f 529 530 532
f 529 532 531
f 531 532 534
f 531 534 533
f 533 534 536
f 533 536 535
f 535 536 530
f 535 530 529
f 537 538 540
f 537 540 539
f 539 540 542
f 539 542 541
f 541 542 544
f 541 544 543
f 543 544 538
f 543 538 537
f 545 546 548
f 545 548 547
f 547 548 550
f 547 550 549
f 549 550 552
f 549 552 551
f 551 552 546
f 551 546 545
f 553 554 556
f 553 556 555
f 555 556 558
f 555 558 557
f 557 558 560
f 557 560 559
f 559 560 554
f 559 554 553
f 561 562 564
f 561 564 563
f 563 564 566
f 563 566 565
f 565 566 568
f 565 568 567
f 567 568 562
f 567 562 561
f 569 570 572
f 569 572 571
f 571 572 574
f 571 574 573
f 573 574 576
f 573 576 575
f 575 576 570
f 575 570 569
