# wireframe unit box, -1..1 -- MODELDEF Scale is the half-extent
# ribbons, not degenerate triangles
v -1.00000 -1.02000 -1.00000
v -1.00000 -0.98000 -1.00000
v -1.00000 -1.02000 1.00000
v -1.00000 -0.98000 1.00000
v -1.02000 -1.00000 -1.00000
v -0.98000 -1.00000 -1.00000
v -1.02000 1.00000 -1.00000
v -0.98000 1.00000 -1.00000
v -1.00000 -0.98000 -1.00000
v -1.00000 -1.02000 -1.00000
v 1.00000 -0.98000 -1.00000
v 1.00000 -1.02000 -1.00000
v -1.02000 -1.00000 1.00000
v -0.98000 -1.00000 1.00000
v -1.02000 1.00000 1.00000
v -0.98000 1.00000 1.00000
v -1.00000 -0.98000 1.00000
v -1.00000 -1.02000 1.00000
v 1.00000 -0.98000 1.00000
v 1.00000 -1.02000 1.00000
v -1.00000 0.98000 -1.00000
v -1.00000 1.02000 -1.00000
v -1.00000 0.98000 1.00000
v -1.00000 1.02000 1.00000
v -1.00000 1.02000 -1.00000
v -1.00000 0.98000 -1.00000
v 1.00000 1.02000 -1.00000
v 1.00000 0.98000 -1.00000
v -1.00000 1.02000 1.00000
v -1.00000 0.98000 1.00000
v 1.00000 1.02000 1.00000
v 1.00000 0.98000 1.00000
v 1.00000 -1.02000 -1.00000
v 1.00000 -0.98000 -1.00000
v 1.00000 -1.02000 1.00000
v 1.00000 -0.98000 1.00000
v 0.98000 -1.00000 -1.00000
v 1.02000 -1.00000 -1.00000
v 0.98000 1.00000 -1.00000
v 1.02000 1.00000 -1.00000
v 0.98000 -1.00000 1.00000
v 1.02000 -1.00000 1.00000
v 0.98000 1.00000 1.00000
v 1.02000 1.00000 1.00000
v 1.00000 0.98000 -1.00000
v 1.00000 1.02000 -1.00000
v 1.00000 0.98000 1.00000
v 1.00000 1.02000 1.00000
f 1 2 4
f 1 4 3
f 5 6 8
f 5 8 7
f 9 10 12
f 9 12 11
f 13 14 16
f 13 16 15
f 17 18 20
f 17 20 19
f 21 22 24
f 21 24 23
f 25 26 28
f 25 28 27
f 29 30 32
f 29 32 31
f 33 34 36
f 33 36 35
f 37 38 40
f 37 40 39
f 41 42 44
f 41 44 43
f 45 46 48
f 45 48 47
